<svg xmlns="http://www.w3.org/2000/svg" viewBox="0 0 512 512" role="img" aria-label="Cyvora">
  <defs>
    <linearGradient id="bg" x1="64" y1="48" x2="448" y2="464" gradientUnits="userSpaceOnUse">
      <stop stop-color="#060b15"/>
      <stop offset="1" stop-color="#0c1322"/>
    </linearGradient>
    <linearGradient id="ring" x1="100" y1="92" x2="420" y2="424" gradientUnits="userSpaceOnUse">
      <stop stop-color="#6de3ff"/>
      <stop offset="0.5" stop-color="#8b8cff"/>
      <stop offset="1" stop-color="#f0c76b"/>
    </linearGradient>
    <linearGradient id="stroke" x1="144" y1="144" x2="368" y2="368" gradientUnits="userSpaceOnUse">
      <stop stop-color="#f7fcff"/>
      <stop offset="1" stop-color="#9fe5ff"/>
    </linearGradient>
  </defs>
  <rect width="512" height="512" rx="120" fill="url(#bg)"/>
  <rect x="74" y="74" width="364" height="364" rx="86" stroke="url(#ring)" stroke-width="18" opacity="0.42"/>
  <circle cx="256" cy="256" r="126" fill="url(#ring)" opacity="0.12"/>
  <path d="M336 172C316 144 289 130 256 130C186.441 130 130 186.441 130 256C130 325.559 186.441 382 256 382C289 382 316 368 336 340" fill="none" stroke="url(#stroke)" stroke-width="30" stroke-linecap="round"/>
  <path d="M194 196L256 336L318 196" fill="none" stroke="url(#stroke)" stroke-width="30" stroke-linecap="round" stroke-linejoin="round"/>
  <path d="M220 256H292" fill="none" stroke="#f0c76b" stroke-width="22" stroke-linecap="round"/>
  <circle cx="364" cy="150" r="14" fill="#f0c76b"/>
  <circle cx="150" cy="366" r="12" fill="#6de3ff"/>
</svg>
